<?xml version="1.0" encoding="UTF-8"?>
<!DOCTYPE svg PUBLIC "-//W3C//DTD SVG 1.1//EN" "http://www.w3.org/Graphics/SVG/1.1/DTD/svg11.dtd">
<!-- Creator: CorelDRAW -->
<svg xmlns="http://www.w3.org/2000/svg" xml:space="preserve" width="210mm" height="297mm" style="shape-rendering:geometricPrecision; text-rendering:geometricPrecision; image-rendering:optimizeQuality; fill-rule:evenodd; clip-rule:evenodd"
viewBox="0 0 210 297"
 xmlns:dc="http://purl.org/dc/elements/1.1/"
 xmlns:cc="http://web.resource.org/cc/"
 xmlns:rdf="http://www.w3.org/1999/02/22-rdf-syntax-ns#"
 xmlns:svg="http://www.w3.org/2000/svg"
 xmlns:sodipodi="http://sodipodi.sourceforge.net/DTD/sodipodi-0.dtd"
 xmlns:inkscape="http://www.inkscape.org/namespaces/inkscape"
 version="1.0"
 sodipodi:version="0.32"
 inkscape:version="0.45.1"
 sodipodi:docname="Brosen_windrose-fr2.svg"
 sodipodi:docbase="C:\Documents and Settings\Martine\Mes documents\Saint-Hilaire"
 inkscape:label="napisy"
 inkscape:output_extension="org.inkscape.output.svg.inkscape">
 <defs>
  <style type="text/css">
   <![CDATA[
    .str2 {stroke:#202326;stroke-width:0.2646;stroke-linecap:square}
    .str1 {stroke:#979DA4;stroke-width:0.2646;stroke-linecap:square}
    .str0 {stroke:#BFC2C9;stroke-width:0.2646;stroke-linecap:square}
    .fil0 {fill:#202326}
    .fil2 {fill:#979DA4}
    .fil1 {fill:#BFC2C9}
    .fil3 {fill:white}
    .fil4 {fill:#2B2828;fill-rule:nonzero}
   ]]>
  </style>
 </defs>
<symbol id="C" viewBox="1353.81 1904.79 203.008 297.001">
 <polygon id="path1476" class="fil0" points="1353.81,1904.79 1419.05,1904.79 1501.44,2108.49 1501.44,1904.79 1556.82,1904.79 1556.82,2201.79 1491.59,2201.79 1409.19,1998.08 1409.19,2201.79 1353.81,2201.79 "/>
</symbol>
 <g id="Layer_x0020_1">
  <metadata id="CorelCorpID_0Corel-Layer"/>
  <g id="_135456616">
   <metadata id="metadata36">
    <rdf:RDF>
     <cc:Work rdf:about="">
      <dc:format>
       
      image/svg+xml           </dc:format>
      <dc:type rdf:resource="http://purl.org/dc/dcmitype/StillImage"/>
     </cc:Work>
    </rdf:RDF>
   </metadata>
   <sodipodi:namedview inkscape:window-height="778" inkscape:window-width="1152" inkscape:pageshadow="2" inkscape:pageopacity="0.0" borderopacity="1.0" bordercolor="#666666" pagecolor="#ffffff" id="base" inkscape:zoom="0.83266575" inkscape:cx="14.426022" inkscape:cy="273.31561" inkscape:window-x="110" inkscape:window-y="0" inkscape:current-layer="layer2" showgrid="true" showguides="true" inkscape:guide-bbox="true">
    <sodipodi:guide orientation="horizontal" position="402.5248" id="guide2265"/>
   </sodipodi:namedview>
   <g id="_140866568">
    <g>
     <polygon id="path1538" class="fil1 str0" points="78.027,127.428 97.9494,124.214 97.944,124.22 11.4228,209.943 "/>
     <polygon id="path1540" class="fil2 str1" points="94.552,143.541 98.0238,123.574 98.0184,123.579 11.4966,209.302 "/>
     <polygon id="path1542" class="fil1 str0" points="110.612,127.7 98.1508,123.451 98.1521,123.449 129.126,93.2741 "/>
     <polygon id="path1544" class="fil2 str1" points="94.2209,111.453 98.3062,123.862 98.3089,123.859 129.283,93.6835 "/>
     <polygon id="path1546" class="fil1 str0" points="95.0926,137.354 98.0238,123.574 98.0265,123.576 138.012,164.362 "/>
     <polygon id="path1548" class="fil2 str1" points="112.116,121.18 98.3738,123.932 98.3765,123.935 138.363,164.72 "/>
     <polygon id="path1550" class="fil1 str0" points="100.801,109.645 98.3062,123.862 98.3035,123.858 55.069,79.825 "/>
     <polygon id="path1552" class="fil2 str1" points="83.7433,125.785 97.9278,123.475 97.9251,123.472 54.6902,79.4385 "/>
    </g>
    <polygon id="path2122" class="fil3 str2" points="90.0924,112.042 98.7603,123.782 98.7562,123.782 34.6401,123.782 "/>
    <polygon id="path5805" class="fil0 str2" points="90.0924,135.88 98.7603,124.14 98.7562,124.14 34.6401,124.14 "/>
    <polygon id="path8724" class="fil3 str2" points="104.989,135.88 99.1184,124.14 99.1211,124.14 142.54,124.14 "/>
    <polygon id="path8726" class="fil0 str2" points="104.989,112.042 99.1184,123.782 99.1211,123.782 142.54,123.782 "/>
    <polygon id="path8740" class="fil3 str2" points="86.8661,135.197 98.7603,124.14 98.7603,124.151 98.7603,290.479 "/>
    <polygon id="path8742" class="fil0 str2" points="108.892,134.659 99.1184,124.14 99.1184,124.151 99.1184,290.479 "/>
    <polygon id="path8746" class="fil3 str2" points="109.115,113.333 99.1184,123.782 99.1184,123.775 99.1184,20.6724 "/>
    <polygon id="path8748" class="fil0 str2" points="87.2858,112.637 98.7603,123.782 98.7603,123.775 98.7603,20.6724 "/>
    <path id="_140009024" class="fil4" d="M115.091 23.651l1.0851 0.2746c-0.2269,0.8885 -0.6369,1.5675 -1.2261,2.0365 -0.5913,0.4673 -1.3121,0.6999 -2.1663,0.6999 -0.883,0 -1.6001,-0.1792 -2.1531,-0.5377 -0.553,-0.3604 -0.9745,-0.8811 -1.2625,-1.5618 -0.2878,-0.6827 -0.4328,-1.4151 -0.4328,-2.1968 0,-0.8525 0.1622,-1.5962 0.4883,-2.2312 0.326,-0.635 0.7894,-1.1176 1.392,-1.4475 0.6007,-0.3299 1.2624,-0.4939 1.9852,-0.4939 0.8199,0 1.5085,0.208 2.0671,0.6256 0.5588,0.4175 0.9478,1.003 1.1671,1.76l-1.066 0.2518c-0.1907,-0.5969 -0.4653,-1.0298 -0.8276,-1.3025 -0.3604,-0.2727 -0.8143,-0.4081 -1.3635,-0.4081 -0.6293,0 -1.1537,0.1507 -1.5771,0.452 -0.4233,0.3031 -0.7209,0.7075 -0.8906,1.2167 -0.1716,0.5072 -0.2574,1.0316 -0.2574,1.5712 0,0.698 0.101,1.3044 0.3032,1.8251 0.2041,0.5187 0.5187,0.9077 0.9478,1.1652 0.429,0.2574 0.8924,0.3851 1.392,0.3851 0.6065,0 1.1195,-0.1754 1.5409,-0.5243 0.4215,-0.351 0.7055,-0.8715 0.8543,-1.5599z"/>
    <path id="_21100032" class="fil4" d="M107.696 281.855l1.0852 0 0 3.6766 1.575 0c0.0783,-1.1633 0.4596,-2.0882 1.1461,-2.7804 0.6847,-0.6903 1.5333,-1.0355 2.5478,-1.0355 1.0679,0 1.9528,0.3757 2.6565,1.1289 0.7017,0.7514 1.0526,1.7717 1.0526,3.0608 0,1.3406 -0.3509,2.3894 -1.0507,3.1465 -0.6999,0.7551 -1.5962,1.1327 -2.687,1.1327 -0.9917,0 -1.8174,-0.3261 -2.4771,-0.9802 -0.6618,-0.6541 -1.0509,-1.558 -1.1652,-2.7117l-1.598 0 0 3.5527 -1.0852 0 0 -8.1904zm3.7492 4.1343c0,1.0355 0.2384,1.8383 0.7151,2.4104 0.4767,0.572 1.1022,0.8581 1.8783,0.8581 0.7933,0 1.4264,-0.2861 1.8994,-0.86 0.4729,-0.5741 0.7094,-1.3998 0.7094,-2.4752 0,-1.0203 -0.2326,-1.8251 -0.698,-2.4105 -0.4672,-0.5873 -1.0964,-0.881 -1.8898,-0.881 -0.8067,0 -1.4455,0.2974 -1.9126,0.8925 -0.4672,0.593 -0.7018,1.4149 -0.7018,2.4657z"/>
    <path id="_139143344" class="fil4" d="M143.381 121.121l0 -8.1904 3.074 0c0.6254,0 1.127,0.0838 1.5046,0.2479 0.3795,0.1659 0.675,0.4215 0.8887,0.7666 0.2135,0.3433 0.3222,0.7037 0.3222,1.0813 0,0.3489 -0.0953,0.6788 -0.286,0.9877 -0.1888,0.3089 -0.4768,0.5588 -0.8601,0.7495 0.4958,0.1449 0.8754,0.3928 1.1423,0.7418 0.267,0.3509 0.4004,0.7647 0.4004,1.2415 0,0.3833 -0.0819,0.7399 -0.2441,1.0698 -0.162,0.3298 -0.3623,0.5835 -0.6007,0.7627 -0.2383,0.1793 -0.5377,0.3128 -0.8962,0.4043 -0.3585,0.0915 -0.7991,0.1373 -1.3215,0.1373l-3.1236 0zm1.085 -4.7484l1.7715 0c0.4787,0 0.8238,-0.0324 1.0337,-0.0952 0.2746,-0.0821 0.4825,-0.2175 0.6217,-0.4082 0.1392,-0.1906 0.2097,-0.429 0.2097,-0.7151 0,-0.2708 -0.0649,-0.5111 -0.1945,-0.7171 -0.1316,-0.2078 -0.3185,-0.3489 -0.5588,-0.4251 -0.2421,-0.0764 -0.6578,-0.1145 -1.2472,-0.1145l-1.6361 0 0 2.4752zm0 3.7816l2.0386 0c0.3508,0 0.5969,-0.0133 0.738,-0.0382 0.2497,-0.0457 0.4577,-0.1201 0.6254,-0.225 0.1678,-0.103 0.3051,-0.2556 0.4139,-0.4538 0.1068,-0.2003 0.1621,-0.4291 0.1621,-0.6903 0,-0.3051 -0.0783,-0.5703 -0.2346,-0.7972 -0.1564,-0.225 -0.3738,-0.3832 -0.6522,-0.4749 -0.2765,-0.0896 -0.6769,-0.1352 -1.1976,-0.1352l-1.8936 0 0 2.8146z"/>
    <path id="_139143144" class="fil4" d="M28.399 139.078l1.0337 -0.2689c0.0781,0.3986 0.286,0.7971 0.6273,1.1957 0.3414,0.3985 0.7934,0.5988 1.3559,0.5988 0.5722,0 1.026,-0.1468 1.3559,-0.4425 0.3319,-0.2936 0.4977,-0.6482 0.4977,-1.066 0,-0.45 -0.1754,-0.8085 -0.5244,-1.0755 -0.3509,-0.2669 -0.8276,-0.4005 -1.4303,-0.4005l-0.5205 0 0 -0.9439c0.4996,0 0.8809,-0.0287 1.1461,-0.0858 0.265,-0.0572 0.4977,-0.2041 0.7018,-0.4425 0.2021,-0.2363 0.3031,-0.5053 0.3031,-0.8066 0,-0.3566 -0.1373,-0.6675 -0.4157,-0.9325 -0.2765,-0.2651 -0.6522,-0.3966 -1.1251,-0.3966 -0.4138,0 -0.7666,0.103 -1.0584,0.3089 -0.2936,0.2079 -0.4958,0.4806 -0.6063,0.8219 -0.1126,0.3414 -0.1679,0.5949 -0.1679,0.7628l-1.0393 -0.2346c0.2574,-1.7391 1.2185,-2.6088 2.8833,-2.6088 0.7991,0 1.4341,0.2231 1.9051,0.6675 0.4692,0.4443 0.7036,0.965 0.7036,1.5618 0,0.7629 -0.3623,1.3558 -1.085,1.7755 0.4176,0.1163 0.7666,0.3508 1.0488,0.7074 0.2804,0.3566 0.4215,0.7819 0.4215,1.2757 0,0.7057 -0.2727,1.2949 -0.8181,1.7698 -0.5454,0.4748 -1.2701,0.7113 -2.172,0.7113 -1.5485,0 -2.5553,-0.8162 -3.0208,-2.4524z"/>
    <path id="_139142768" class="fil4" d="M44.3213 84.0603l0.7268 0.1839c-0.152,0.5951 -0.4266,1.0497 -0.8212,1.3639 -0.396,0.313 -0.8789,0.4688 -1.451,0.4688 -0.5914,0 -1.0716,-0.12 -1.442,-0.3601 -0.3704,-0.2415 -0.6527,-0.5902 -0.8455,-1.0461 -0.1929,-0.4572 -0.2899,-0.9478 -0.2899,-1.4714 0,-0.5708 0.1085,-1.069 0.3269,-1.4943 0.2185,-0.4254 0.5288,-0.7485 0.9324,-0.9694 0.4024,-0.221 0.8455,-0.3309 1.3296,-0.3309 0.5492,0 1.0103,0.1392 1.3845,0.419 0.3743,0.2797 0.6348,0.6719 0.7817,1.1789l-0.714 0.1685c-0.1277,-0.3997 -0.3117,-0.6896 -0.5542,-0.8723 -0.2415,-0.1826 -0.5455,-0.2732 -0.9133,-0.2732 -0.4215,0 -0.7727,0.1008 -1.0563,0.3025 -0.2835,0.2032 -0.4828,0.474 -0.5965,0.8149 -0.1148,0.3398 -0.1724,0.691 -0.1724,1.0525 0,0.4674 0.0677,0.8737 0.2031,1.2223 0.1366,0.3475 0.3474,0.608 0.6348,0.7805 0.2874,0.1723 0.5977,0.2579 0.9324,0.2579 0.4061,0 0.7496,-0.1175 1.0319,-0.3512 0.2823,-0.235 0.4726,-0.5838 0.5722,-1.0447zm1.2364 0.3742l0.6923 -0.1802c0.0523,0.2669 0.1917,0.534 0.4202,0.8009 0.2286,0.2669 0.5314,0.401 0.9081,0.401 0.3831,0 0.6872,-0.0983 0.9082,-0.2963 0.2221,-0.1966 0.3333,-0.4342 0.3333,-0.714 0,-0.3015 -0.1175,-0.5415 -0.3512,-0.7204 -0.235,-0.1788 -0.5543,-0.2681 -0.958,-0.2681l-0.3486 0 0 -0.6323c0.3346,0 0.59,-0.0192 0.7675,-0.0575 0.1776,-0.0383 0.3334,-0.1366 0.4701,-0.2963 0.1354,-0.1584 0.2031,-0.3384 0.2031,-0.5403 0,-0.2388 -0.0921,-0.4469 -0.2784,-0.6245 -0.1853,-0.1776 -0.4369,-0.2657 -0.7537,-0.2657 -0.2772,0 -0.5134,0.069 -0.7088,0.2069 -0.1968,0.1392 -0.332,0.3219 -0.4062,0.5506 -0.0753,0.2285 -0.1123,0.3984 -0.1123,0.5108l-0.6961 -0.157c0.1724,-1.1649 0.8161,-1.7474 1.9311,-1.7474 0.5352,0 0.9605,0.1495 1.276,0.4471 0.3142,0.2975 0.4712,0.6463 0.4712,1.0461 0,0.5108 -0.2425,0.908 -0.7266,1.1891 0.2796,0.0778 0.5134,0.235 0.7024,0.4738 0.1878,0.2389 0.2822,0.5236 0.2822,0.8545 0,0.4725 -0.1826,0.8672 -0.5478,1.1853 -0.3653,0.318 -0.8507,0.4763 -1.4548,0.4763 -1.0371,0 -1.7116,-0.5466 -2.0232,-1.6424z"/>
    <path id="_139139344" class="fil4" d="M138.683 90.8172l0.7268 0.184c-0.152,0.5951 -0.4267,1.0497 -0.8213,1.3639 -0.3959,0.313 -0.8788,0.4688 -1.451,0.4688 -0.5913,0 -1.0715,-0.12 -1.4419,-0.3601 -0.3704,-0.2415 -0.6527,-0.5902 -0.8456,-1.0461 -0.1928,-0.4572 -0.2898,-0.9478 -0.2898,-1.4714 0,-0.5709 0.1085,-1.069 0.3269,-1.4943 0.2185,-0.4254 0.5288,-0.7485 0.9324,-0.9695 0.4023,-0.2209 0.8455,-0.3308 1.3295,-0.3308 0.5492,0 1.0103,0.1392 1.3845,0.4189 0.3744,0.2798 0.6349,0.672 0.7818,1.179l-0.7141 0.1685c-0.1277,-0.3997 -0.3116,-0.6896 -0.5542,-0.8723 -0.2415,-0.1826 -0.5454,-0.2733 -0.9132,-0.2733 -0.4215,0 -0.7728,0.1009 -1.0563,0.3026 -0.2835,0.2031 -0.4828,0.474 -0.5965,0.8149 -0.1149,0.3397 -0.1724,0.691 -0.1724,1.0525 0,0.4674 0.0677,0.8737 0.2031,1.2223 0.1366,0.3475 0.3474,0.608 0.6347,0.7804 0.2875,0.1723 0.5978,0.258 0.9325,0.258 0.4061,0 0.7496,-0.1175 1.0319,-0.3512 0.2823,-0.235 0.4726,-0.5838 0.5722,-1.0448zm1.5902 1.9235l0 -5.4857 2.0588 0c0.419,0 0.7549,0.0562 1.0078,0.166 0.2542,0.1111 0.4522,0.2823 0.5953,0.5134 0.1429,0.2299 0.2158,0.4714 0.2158,0.7242 0,0.2338 -0.0639,0.4548 -0.1916,0.6617 -0.1265,0.2069 -0.3194,0.3742 -0.576,0.5019 0.332,0.097 0.5862,0.2631 0.765,0.4969 0.1788,0.235 0.2683,0.5122 0.2683,0.8314 0,0.2568 -0.055,0.4955 -0.1635,0.7165 -0.1086,0.221 -0.2428,0.3908 -0.4024,0.511 -0.1597,0.12 -0.3601,0.2094 -0.6002,0.2708 -0.2402,0.0612 -0.5352,0.0919 -0.8852,0.0919l-2.0921 0zm0.7268 -3.1803l1.1865 0c0.3205,0 0.5518,-0.0217 0.6922,-0.0639 0.1839,-0.0549 0.3232,-0.1455 0.4165,-0.2734 0.0931,-0.1277 0.1404,-0.2873 0.1404,-0.4789 0,-0.1814 -0.0434,-0.3423 -0.1303,-0.4802 -0.0881,-0.1393 -0.2132,-0.2338 -0.3742,-0.2848 -0.1622,-0.0511 -0.4407,-0.0767 -0.8353,-0.0767l-1.0958 0 0 1.6579zm0 2.5327l1.3653 0c0.235,0 0.3997,-0.0089 0.4943,-0.0256 0.1673,-0.0306 0.3065,-0.0804 0.419,-0.1506 0.1123,-0.069 0.2043,-0.1711 0.2771,-0.304 0.0715,-0.1342 0.1085,-0.2874 0.1085,-0.4624 0,-0.2043 -0.0524,-0.3819 -0.1571,-0.5338 -0.1048,-0.1508 -0.2503,-0.2568 -0.4368,-0.3181 -0.1851,-0.06 -0.4534,-0.0907 -0.802,-0.0907l-1.2683 0 0 1.8852z"/>
    <path id="_138645472" class="fil4" d="M140.444 168.339l0.7266 0 0 2.4625 1.0551 0c0.0523,-0.7791 0.3078,-1.3985 0.7675,-1.8622 0.4586,-0.4623 1.027,-0.6935 1.7065,-0.6935 0.7152,0 1.3078,0.2516 1.7791,0.7561 0.47,0.5032 0.705,1.1866 0.705,2.05 0,0.8979 -0.235,1.6003 -0.7037,2.1074 -0.4688,0.5058 -1.0691,0.7587 -1.7996,0.7587 -0.6642,0 -1.2172,-0.2184 -1.6591,-0.6565 -0.4433,-0.4382 -0.7039,-1.0436 -0.7805,-1.8163l-1.0703 0 0 2.3795 -0.7266 0 0 -5.4857zm2.511 2.769c0,0.6935 0.1596,1.2313 0.4789,1.6145 0.3194,0.3831 0.7383,0.5748 1.258,0.5748 0.5314,0 0.9555,-0.1917 1.2723,-0.5761 0.3166,-0.3845 0.475,-0.9375 0.475,-1.6578 0,-0.6834 -0.1558,-1.2223 -0.4675,-1.6145 -0.3128,-0.3934 -0.7343,-0.59 -1.2657,-0.59 -0.5403,0 -0.9681,0.1992 -1.281,0.5977 -0.313,0.3972 -0.47,0.9477 -0.47,1.6514zm5.1791 2.7167l0 -5.4857 2.0588 0c0.419,0 0.7549,0.0562 1.0078,0.1661 0.2542,0.1111 0.4522,0.2823 0.5953,0.5134 0.1429,0.2299 0.2158,0.4713 0.2158,0.7242 0,0.2338 -0.0639,0.4547 -0.1916,0.6616 -0.1265,0.2069 -0.3194,0.3742 -0.576,0.5019 0.332,0.0971 0.5862,0.2632 0.765,0.497 0.1788,0.235 0.2683,0.5121 0.2683,0.8313 0,0.2568 -0.055,0.4956 -0.1635,0.7165 -0.1086,0.221 -0.2428,0.3909 -0.4024,0.511 -0.1597,0.12 -0.3601,0.2095 -0.6003,0.2708 -0.2401,0.0612 -0.5351,0.0919 -0.8851,0.0919l-2.0921 0zm0.7268 -3.1802l1.1865 0c0.3205,0 0.5518,-0.0218 0.6922,-0.0639 0.1839,-0.0549 0.3232,-0.1456 0.4165,-0.2734 0.0931,-0.1277 0.1404,-0.2873 0.1404,-0.479 0,-0.1813 -0.0434,-0.3423 -0.1303,-0.4801 -0.0881,-0.1393 -0.2132,-0.2338 -0.3742,-0.2849 -0.1622,-0.0511 -0.4407,-0.0766 -0.8353,-0.0766l-1.0958 0 0 1.6579zm0 2.5326l1.3653 0c0.235,0 0.3997,-0.0089 0.4943,-0.0255 0.1673,-0.0307 0.3065,-0.0804 0.419,-0.1507 0.1123,-0.0689 0.2043,-0.1711 0.2771,-0.3039 0.0715,-0.1342 0.1085,-0.2875 0.1085,-0.4625 0,-0.2043 -0.0524,-0.3819 -0.1571,-0.5338 -0.1048,-0.1508 -0.2503,-0.2567 -0.4368,-0.3181 -0.1851,-0.06 -0.4534,-0.0907 -0.802,-0.0907l-1.2683 0 0 1.8852z"/>
    <path id="_139179192" class="fil4" d="M19.0118 208.881l0.7267 0 0 2.4625 1.055 0c0.0523,-0.7791 0.3079,-1.3986 0.7676,-1.8622 0.4585,-0.4623 1.0269,-0.6936 1.7064,-0.6936 0.7153,0 1.3079,0.2517 1.7791,0.7561 0.47,0.5033 0.7051,1.1867 0.7051,2.0501 0,0.8979 -0.2351,1.6003 -0.7037,2.1074 -0.4688,0.5058 -1.0691,0.7586 -1.7997,0.7586 -0.6642,0 -1.2172,-0.2183 -1.6591,-0.6565 -0.4432,-0.4381 -0.7038,-1.0435 -0.7804,-1.8162l-1.0703 0 0 2.3795 -0.7267 0 0 -5.4857zm2.5111 2.769c0,0.6935 0.1596,1.2312 0.4789,1.6145 0.3193,0.3831 0.7383,0.5747 1.258,0.5747 0.5314,0 0.9555,-0.1916 1.2722,-0.5761 0.3167,-0.3844 0.475,-0.9374 0.475,-1.6577 0,-0.6834 -0.1558,-1.2224 -0.4674,-1.6145 -0.3129,-0.3934 -0.7344,-0.59 -1.2657,-0.59 -0.5403,0 -0.9682,0.1992 -1.281,0.5977 -0.313,0.3972 -0.47,0.9477 -0.47,1.6514zm4.9108 1.1675l0.6923 -0.1802c0.0523,0.2669 0.1917,0.5339 0.4202,0.8008 0.2286,0.2669 0.5313,0.4011 0.9081,0.4011 0.3831,0 0.6872,-0.0983 0.9082,-0.2963 0.2221,-0.1966 0.3333,-0.4342 0.3333,-0.714 0,-0.3015 -0.1175,-0.5415 -0.3512,-0.7204 -0.235,-0.1788 -0.5543,-0.2681 -0.958,-0.2681l-0.3487 0 0 -0.6323c0.3347,0 0.5901,-0.0192 0.7676,-0.0575 0.1776,-0.0383 0.3334,-0.1366 0.4701,-0.2963 0.1354,-0.1584 0.2031,-0.3384 0.2031,-0.5403 0,-0.2388 -0.0921,-0.4469 -0.2784,-0.6245 -0.1853,-0.1776 -0.4369,-0.2657 -0.7537,-0.2657 -0.2772,0 -0.5134,0.0689 -0.7088,0.2069 -0.1968,0.1392 -0.332,0.3219 -0.4062,0.5506 -0.0753,0.2285 -0.1123,0.3984 -0.1123,0.5108l-0.6961 -0.157c0.1724,-1.1649 0.8161,-1.7474 1.9311,-1.7474 0.5352,0 0.9605,0.1495 1.276,0.4471 0.3142,0.2975 0.4712,0.6463 0.4712,1.0461 0,0.5108 -0.2425,0.908 -0.7266,1.1891 0.2796,0.0778 0.5134,0.235 0.7024,0.4738 0.1878,0.2389 0.2822,0.5236 0.2822,0.8545 0,0.4725 -0.1826,0.8672 -0.5478,1.1853 -0.3653,0.318 -0.8507,0.4763 -1.4548,0.4763 -1.0371,0 -1.7116,-0.5466 -2.0232,-1.6424z"/>
   </g>
  </g>
 </g>
</svg>
